Coordinates
version=1
nRows=12
nColumns=24
inDegrees=yes

Units are S.I. units (second, meters, Newtons, ...)
Angles are in degrees.

endheader
time	pelvis_tilt	pelvis_list	pelvis_rotation	pelvis_tx	pelvis_ty	pelvis_tz	hip_flexion_r	hip_adduction_r	hip_rotation_r	knee_angle_r	ankle_angle_r	subtalar_angle_r	mtp_angle_r	hip_flexion_l	hip_adduction_l	hip_rotation_l	knee_angle_l	ankle_angle_l	subtalar_angle_l	mtp_angle_l	lumbar_extension	lumbar_bending	lumbar_rotation
      8.16000000	     50.58012518	    -15.05486407	     -2.59485388	      0.43246234	      1.02026094	     -0.34815269	     27.90078612	      2.75520998	      8.08654623	    -58.97179564	     14.43159618	     49.77771746	      0.00000000	     22.62203774	    -25.67068699	      7.24988706	    -69.67546440	     28.16428000	     30.35760458	      0.00000000	      0.00000000	      0.00000000	      0.00000000
      8.17000000	     50.55711667	    -15.03589674	     -2.60125593	      0.43241267	      1.02030510	     -0.34813169	     27.90194210	      2.70695008	      8.13257068	    -59.05785249	     14.42555507	     49.76941572	      0.00000000	     22.63077594	    -25.64563249	      7.24835552	    -69.63685155	     28.14177389	     30.34704331	      0.00000000	      0.00000000	      0.00000000	      0.00000000
      8.18000000	     50.53548671	    -15.02361220	     -2.60987152	      0.43240306	      1.02031211	     -0.34810066	     27.90809718	      2.66397717	      8.17639481	    -59.15755552	     14.42120627	     49.77004288	      0.00000000	     22.64346260	    -25.62978176	      7.24689752	    -69.60457428	     28.12114797	     30.33850050	      0.00000000	      0.00000000	      0.00000000	      0.00000000
      8.19000000	     50.51871803	    -15.02034996	     -2.62027134	      0.43242082	      1.02029102	     -0.34805719	     27.91530698	      2.62888189	      8.21588413	    -59.27252879	     14.42114559	     49.77635879	      0.00000000	     22.65682194	    -25.62608399	      7.24670603	    -69.58108250	     28.10386372	     30.33345150	      0.00000000	      0.00000000	      0.00000000	      0.00000000
      8.20000000	     50.50846565	    -15.02659556	     -2.63186357	      0.43245023	      1.02025623	     -0.34800964	     27.92001430	      2.60220678	      8.24914619	    -59.40082851	     14.42749338	     49.78414918	      0.00000000	     22.66824950	    -25.63460264	      7.24777844	    -69.56529952	     28.09091952	     30.33271158	      0.00000000	      0.00000000	      0.00000000	      0.00000000
      8.21000000	     50.50497023	    -15.04132667	     -2.64386756	      0.43248635	      1.02021865	     -0.34796663	     27.92011919	      2.58261050	      8.27514167	    -59.53784352	     14.44128523	     49.78890320	      0.00000000	     22.67627791	    -25.65319975	      7.24930239	    -69.55380568	     28.08254980	     30.33628867	      0.00000000	      0.00000000	      0.00000000	      0.00000000
      8.22000000	     50.50735204	    -15.06232939	     -2.65555157	      0.43252667	      1.02018589	     -0.34792922	     27.91500470	      2.56777884	      8.29388391	    -59.67835577	     14.46212754	     49.78658341	      0.00000000	     22.68042090	    -25.67872456	      7.25032981	    -69.54272913	     28.07811935	     30.34340071	      0.00000000	      0.00000000	      0.00000000	      0.00000000
      8.23000000	     50.51389813	    -15.08683542	     -2.66651231	      0.43256590	      1.02016403	     -0.34789575	     27.90499760	      2.55540476	      8.30626388	    -59.81860880	     14.48829301	     49.77429447	      0.00000000	     22.68066033	    -25.70796454	      7.25028797	    -69.52921421	     28.07627262	     30.35265701	      0.00000000	      0.00000000	      0.00000000	      0.00000000
      8.24000000	     50.52279806	    -15.11239672	     -2.67661269	      0.43259969	      1.02015334	     -0.34786703	     27.89106372	      2.54368981	      8.31379714	    -59.95730321	     14.51724404	     49.75069522	      0.00000000	     22.67703884	    -25.73816236	      7.24912368	    -69.51191914	     28.07528930	     30.36236098	      0.00000000	      0.00000000	      0.00000000	      0.00000000
      8.25000000	     50.53307470	    -15.13731984	     -2.68557685	      0.43262817	      1.02014854	     -0.34784563	     27.87477393	      2.53147167	      8.31843044	    -60.09523118	     14.54637116	     49.71607300	      0.00000000	     22.66965836	    -25.76723373	      7.24715193	    -69.49067560	     28.07350943	     30.37087164	      0.00000000	      0.00000000	      0.00000000	      0.00000000
      8.26000000	     50.54479060	    -15.16041803	     -2.69266501	      0.43265287	      1.02014764	     -0.34782911	     27.85796935	      2.51824890	      8.32231595	    -60.23411769	     14.57366371	     49.67209468	      0.00000000	     22.65895967	    -25.79376123	      7.24475960	    -69.46583973	     28.06967389	     30.37696149	      0.00000000	      0.00000000	      0.00000000	      0.00000000
      8.27000000	     50.55834429	    -15.18057439	     -2.69695481	      0.43267197	      1.02014867	     -0.34780708	     27.84207825	      2.50399080	      8.32749890	    -60.37541167	     14.59811025	     49.62132131	      0.00000000	     22.64594429	    -25.81686485	      7.24217400	    -69.43787346	     28.06309297	     30.38009314	      0.00000000	      0.00000000	      0.00000000	      0.00000000
